# xmcd
#
# Track frame offsets: 
#        150
#        8758
#        29718
#        43996
#        56940
#        69963
#        86256
#        106210
#        119295
#        141304
#        159766
#        181545
#        197334
#
# Disc length: 2879 seconds
#
# Revision: 0
# Processed by: cddbd v1.5.2PL0 Copyright (c) Steve Scherf et al.
# Submitted via: ExactAudioCopy v1.0b1
#
DISCID=a30b3d0d
DTITLE=Miss Freddye - That Kinda Woman
DYEAR=2010
DGENRE=Blues
TTITLE0=(My Name Is) Miss  Freddye
TTITLE1=That Kinda Woman
TTITLE2=Pink Lemonade
TTITLE3=Instant Everything
TTITLE4=Same Ol' Lies
TTITLE5=Keep A Corner Of The Blanket
TTITLE6=Habit 
TTITLE7=If You Ain't Gonna Shake
TTITLE8=Streetlight Moon
TTITLE9=Get Yourself Loved
TTITLE10=The Bigger They Come
TTITLE11=Cookout 
TTITLE12=These Are My Blues
EXTD=
EXTT0=
EXTT1=
EXTT2=
EXTT3=
EXTT4=
EXTT5=
EXTT6=
EXTT7=
EXTT8=
EXTT9=
EXTT10=
EXTT11=
EXTT12=
PLAYORDER=
